<?xml version="1.0" encoding="utf-8"?>
<!-- Generator: Adobe Illustrator 19.0.0, SVG Export Plug-In . SVG Version: 6.00 Build 0)  -->
<svg version="1.1" id="Layer_1" xmlns="http://www.w3.org/2000/svg" xmlns:xlink="http://www.w3.org/1999/xlink" x="0px" y="0px"
	 viewBox="0 0 800 800" style="enable-background:new 0 0 800 800;" xml:space="preserve">
<style type="text/css">
	.st0{fill:#FFFFFF;}
</style>
<path id="XMLID_57_" class="st0" d="M432.1,698.3c27.2,15.5,54.8,31.2,84.3,39.3c55.1,15,110.7,0.4,148.3-30.1s59.1-75.4,70.6-122.6
	c10.3-42.3,13.1-88.1,0.3-133.7c-12.8-45.7-42.7-91.2-86.3-120.2c-29.6-19.7-64.2-31.1-92.1-53c-45-35.3-63.8-90.1-101.5-132
	c-39.3-43.6-100-71-155.5-70.1c-60.5,0.9-110.4,33.5-141,77c-30.6,43.5-44.1,97-53.5,150.7c-11.2,64-15.2,136.8,28.5,197.9
	c31.6,44.2,82.6,74,131.2,101.8C321,634.9,376.6,666.6,432.1,698.3z"/>
</svg>
